<svg width="198" height="271" viewBox="0 0 198 271" fill="none" xmlns="http://www.w3.org/2000/svg">
<g clip-path="url(#clip0_2487_192)">
<path d="M175.261 270.563H89.0569C76.5181 270.563 66.3184 260.364 66.3184 247.826V22.7362C66.3184 10.1987 76.5181 0 89.0569 0H175.261C187.8 0 198 10.1987 198 22.7362V247.826C198 260.364 187.8 270.563 175.261 270.563Z" fill="#BDBDBD"/>
<path d="M175.324 264.408H88.9941C79.7138 264.408 72.1611 256.856 72.1611 247.576V22.5441C72.1611 13.2648 79.7138 5.71289 88.9941 5.71289H175.324C184.604 5.71289 192.157 13.2648 192.157 22.5441V247.576C192.157 256.856 184.604 264.408 175.324 264.408Z" fill="white"/>
<path d="M144.173 21H119.827C116.613 21 114 18.7578 114 16C114 13.2422 116.613 11 119.827 11H144.173C147.387 11 150 13.2422 150 16C150 18.7578 147.387 21 144.173 21Z" fill="#BDBDBD"/>
<path d="M169.28 89.4095H97.846C96.431 89.4095 95.2793 87.9456 95.2793 86.1513C95.2793 84.357 96.431 82.8931 97.846 82.8931H169.28C170.695 82.8931 171.847 84.357 171.847 86.1513C171.847 87.9456 170.695 89.4095 169.28 89.4095Z" fill="#BDBDBD"/>
<path d="M169.28 103.848H97.846C96.431 103.848 95.2793 102.385 95.2793 100.59C95.2793 98.796 96.431 97.332 97.846 97.332H169.28C170.695 97.332 171.847 98.796 171.847 100.59C171.847 102.385 170.695 103.848 169.28 103.848Z" fill="#BDBDBD"/>
<path d="M148.796 118.287H97.846C96.431 118.287 95.2793 116.823 95.2793 115.029C95.2793 113.234 96.431 111.771 97.846 111.771H148.796C150.211 111.771 151.362 113.234 151.362 115.029C151.362 116.823 150.211 118.287 148.796 118.287Z" fill="#BDBDBD"/>
<path d="M132.16 203.18C149 203.18 162.652 189.529 162.652 172.691C162.652 155.852 149 142.202 132.16 142.202C115.32 142.202 101.668 155.852 101.668 172.691C101.668 189.529 115.32 203.18 132.16 203.18Z" fill="#DAA520"/>
<path d="M124.049 173.324C125.625 176.408 127.201 179.497 128.776 182.581C129.227 183.469 130.553 183.188 130.816 182.313C132.883 175.422 136.722 169.142 141.895 164.148C142.931 163.148 141.351 161.572 140.315 162.568C134.869 167.826 130.839 174.471 128.66 181.72L130.7 181.452C129.124 178.368 127.549 175.279 125.973 172.195C125.321 170.914 123.393 172.043 124.045 173.32H124.049V173.324Z" fill="white"/>
<path d="M49.9583 135.81L42.5663 138.332L42.4502 127.66L49.1771 127.584L49.9583 135.81Z" fill="#F3A3A6"/>
<path d="M43.3168 130.606C47.3993 130.606 50.7088 127.297 50.7088 123.215C50.7088 119.132 47.3993 115.823 43.3168 115.823C39.2343 115.823 35.9248 119.132 35.9248 123.215C35.9248 127.297 39.2343 130.606 43.3168 130.606Z" fill="#F3A3A6"/>
<path d="M45.3386 122.46C44.1021 122.438 43.2763 121.197 42.7808 120.059C42.2853 118.925 41.7765 117.618 40.6293 117.158C39.6874 116.783 38.0626 119.403 37.3127 118.72C36.5315 118.006 37.2457 114.283 38.0581 113.609C38.8705 112.935 39.9909 112.793 41.0444 112.73C43.62 112.583 46.209 112.761 48.74 113.261C50.3023 113.569 51.9182 114.042 53.0564 115.158C54.4982 116.573 54.8866 118.729 55.0116 120.746C55.141 122.808 55.0428 124.973 54.0608 126.794C53.0743 128.611 50.9897 129.968 48.9676 129.53C48.7533 128.437 48.9453 127.312 49.0122 126.196C49.0792 125.085 48.981 123.884 48.2936 123.005C47.6062 122.125 46.151 121.791 45.3698 122.585" fill="#2F2E43"/>
<path d="M54.4578 124.919C55.1899 124.37 56.0693 123.906 56.9799 124.009C57.9664 124.116 58.8056 124.919 59.0689 125.875C59.3323 126.83 59.06 127.888 58.4619 128.678C57.8637 129.468 56.9665 129.994 56.0112 130.262C55.4577 130.418 54.8551 130.485 54.3239 130.262C53.5428 129.936 53.1142 128.95 53.4089 128.155" fill="#2F2E43"/>
<path d="M26.952 194.749C26.4877 197.181 27.4117 199.391 29.0232 199.681C30.6301 199.971 32.313 198.23 32.7772 195.798C32.9781 194.829 32.9334 193.825 32.6478 192.874L38.3346 154.753L30.6748 153.4L28.1527 192.066C27.5367 192.856 27.1216 193.776 26.952 194.753V194.749Z" fill="#F3A3A6"/>
<path d="M42.4331 133.436L37.2149 133.494C33.5323 134.092 32.5503 136.073 31.7557 139.715C30.5371 145.272 28.9837 152.677 29.3096 152.78C29.8318 152.949 38.7594 157.029 43.2767 156.02L42.4331 133.436Z" fill="#DAA520"/>
<path d="M48.8407 254.593L41.8955 254.671L42.0055 264.521L48.9508 264.443L48.8407 254.593Z" fill="#F3A3A6"/>
<path d="M35.2903 270.563C34.5583 270.572 33.911 270.563 33.42 270.523C31.572 270.375 29.7999 269.032 28.9027 268.246C28.5009 267.894 28.367 267.322 28.5679 266.831C28.7107 266.479 29.0053 266.211 29.3714 266.099L34.2324 264.653L42.0663 259.239L42.1556 259.395C42.1913 259.453 42.9814 260.842 43.2493 261.783C43.3519 262.14 43.3296 262.439 43.1823 262.672C43.0796 262.832 42.9368 262.926 42.8207 262.984C42.9636 263.131 43.4144 263.43 44.7982 263.636C46.8113 263.935 47.2176 261.841 47.2309 261.752L47.2443 261.681L47.3024 261.641C48.2532 261.011 48.8379 260.726 49.0432 260.784C49.1727 260.819 49.3825 260.882 50.0163 266.559C50.0744 266.738 50.4895 268.041 50.2306 269.295C49.9494 270.661 43.9992 270.255 42.8118 270.161C42.7761 270.165 38.3302 270.531 35.2814 270.563H35.2903Z" fill="#2F2E43"/>
<path d="M68.5298 246.618L62.6777 250.358L67.984 258.658L73.8361 254.917L68.5298 246.618Z" fill="#F3A3A6"/>
<path d="M60.9349 268.924C60.118 268.933 59.3681 268.844 58.8325 268.755C58.3057 268.665 57.8906 268.255 57.8013 267.728C57.7344 267.349 57.846 266.969 58.0959 266.684L61.4527 262.885L65.2335 254.146L65.3942 254.231C65.4523 254.262 66.8583 255.021 67.5859 255.677C67.8627 255.927 68.0011 256.19 68.0011 256.467C68.0011 256.659 67.9297 256.815 67.8582 256.922C68.0591 256.972 68.5992 256.985 69.8803 256.427C71.7462 255.615 70.9829 253.624 70.9472 253.544L70.9204 253.477L70.9516 253.414C71.4248 252.379 71.773 251.825 71.9738 251.763C72.1033 251.727 72.3131 251.665 75.8573 256.146C76.0002 256.266 77.0447 257.15 77.4866 258.351C77.9687 259.658 72.7104 262.461 71.648 263.01C71.6167 263.037 66.1218 267.121 63.8632 268.291C62.9659 268.755 61.8991 268.906 60.926 268.915L60.9349 268.924Z" fill="#2F2E43"/>
<path d="M53.0251 172.142L33.5809 172.356L32.0186 190.459L40.4819 257.204L50.4093 257.092L46.0125 218.538L62.5017 253.209L71.2552 246.934L58.3192 214.539C58.3192 214.539 62.4973 186.148 58.8905 179.127C55.2838 172.106 53.0296 172.133 53.0296 172.133V172.142H53.0251Z" fill="#2F2E43"/>
<path d="M62.7076 173.137L31.8271 173.481L40.6476 133.458L54.1059 133.306L62.7076 173.137Z" fill="#DAA520"/>
<path d="M65.725 194.32C66.2428 196.744 65.3679 198.971 63.7654 199.297C62.1629 199.622 60.4444 197.922 59.9266 195.498C59.7034 194.534 59.7257 193.53 59.9891 192.57L53.4541 154.583L61.0827 153.061L64.4618 191.664C65.0956 192.441 65.5286 193.352 65.725 194.325V194.32Z" fill="#F3A3A6"/>
<path d="M48.8871 133.364L54.1053 133.306C57.8013 133.824 58.8235 135.783 59.7028 139.408C61.042 144.938 62.7605 152.302 62.4391 152.414C61.9169 152.592 53.0875 156.868 48.5479 155.962L48.8916 133.364H48.8871Z" fill="#DAA520"/>
<path d="M96.007 270.562C96.007 270.803 95.8106 271 95.5696 271H0.437451C0.196406 271 0 270.803 0 270.562C0 270.321 0.196406 270.125 0.437451 270.125H95.5696C95.8106 270.125 96.007 270.321 96.007 270.562Z" fill="#3F3D58"/>
</g>
<defs>
<clipPath id="clip0_2487_192">
<rect width="198" height="271" fill="white"/>
</clipPath>
</defs>
</svg>
